ply
format ascii 1.0
element vertex 8
property float x
property float y
property float z
element material 3
property list uchar float diffuse
property list uchar float specular
property list uchar float emission   
property float shininess
element face 10
property list uchar int vertex_indices
property int material_index
element sphere 4
property list uchar float xyz
property float r
property int material_index
element plane 1
property list uchar float xyz
property list uchar float nxyz
property int material_index
element pointLight 9
property list uchar float xyz
property list uchar float color
property list uchar float attenuation
element directionalLight 0
property list uchar float xyz
property list uchar float color
property list uchar float attenuation
end_header
-2.5 0 2.5
-2.5 0 -2.5
2.5 0 2.5
2.5 0 -2.5
-2.5 5 2.5
-2.5 5 -2.5
2.5 5 2.5
2.5 5 -2.5

3 0.1 0.35 0.75		3 0.7 0.7 0.7	3 0 0 0		20
3 0.1 0.2 0		3 0.6 0.6 0.5	3 0 0 0		200
3 0 0.5 0.25	3 1 0 0 	3 0 0 0		100

3 0 5 1		2  
3 4 5 0		2
3 3 1 5		2
3 3 5 7		2
3 2 3 7		2
3 7 6 2		2
3 0 2 6		2
3 6 4 0		2
3 7 5 4		0
3 4 6 7		0

3 -7 2.5 0	1	0
3 7 2.5 0	1	0
3 0 2.5 7	1	0
3 0 2.5 -7	1	0

3 0 0.1 0	3 0 1 0		0

3 0 10 0		3 1 1 1		3 0 0 0.5
3 10 10 0		3 1 1 1		3 0 0 3
3 -10 10 0		3 1 1 1		3 0 0 3
3 0 10 10		3 1 1 1		3 0 0 3
3 0 10 -10		3 1 1 1		3 0 0 3
3 9 1 0			3 0.1 0.1 0.1		3 0 0 20
3 -9 1 0		3 0.1 0.1 0.1		3 0 0 20
3 0 1 9			3 0.1 0.1 0.1		3 0 0 20
3 0 1 -9		3 0.1 0.1 0.1		3 0 0 20
